<svg width="32" height="32" viewBox="0 0 32 32" fill="none" xmlns="http://www.w3.org/2000/svg">
<path d="M29.096 9.90801C28.9734 9.73077 28.8096 9.5859 28.6187 9.48582C28.4278 9.38573 28.2155 9.33341 28 9.33334H9.77732L8.23866 5.64001C8.03691 5.15363 7.69528 4.73812 7.25709 4.44615C6.8189 4.15418 6.30388 3.99891 5.77732 4.00001H2.66666V6.66667H5.77732L12.1027 21.8467C12.204 22.0895 12.3749 22.297 12.5939 22.4429C12.8129 22.5888 13.0702 22.6667 13.3333 22.6667H24C24.556 22.6667 25.0533 22.3213 25.2493 21.8027L29.2493 11.136C29.3249 10.9342 29.3505 10.717 29.3238 10.5031C29.2971 10.2893 29.2189 10.0851 29.096 9.90801Z" fill="#111111"/>
<path d="M14 28C15.1046 28 16 27.1046 16 26C16 24.8954 15.1046 24 14 24C12.8954 24 12 24.8954 12 26C12 27.1046 12.8954 28 14 28Z" fill="#111111"/>
<path d="M23.3333 28C24.4379 28 25.3333 27.1046 25.3333 26C25.3333 24.8954 24.4379 24 23.3333 24C22.2288 24 21.3333 24.8954 21.3333 26C21.3333 27.1046 22.2288 28 23.3333 28Z" fill="#111111"/>
</svg>
