<svg width="31" height="28" viewBox="0 0 31 28" fill="none" xmlns="http://www.w3.org/2000/svg">
<path d="M9.09 15.115H5.742V18.391H4.608V15.115H1.26V14.053H4.608V10.759H5.742V14.053H9.09V15.115Z" fill="white"/>
<path d="M28.6309 8.66951C28.5308 8.51442 28.3972 8.38766 28.2415 8.30009C28.0858 8.21252 27.9126 8.16674 27.7368 8.16667H12.8709L11.6157 4.93501C11.4511 4.50943 11.1724 4.14586 10.8149 3.89038C10.4574 3.63491 10.0373 3.49904 9.60772 3.50001H7.07007V5.83334H9.60772L14.7679 19.1158C14.8505 19.3284 14.99 19.5099 15.1686 19.6376C15.3473 19.7652 15.5572 19.8334 15.7718 19.8333H24.4736C24.9272 19.8333 25.3329 19.5312 25.4928 19.0773L28.756 9.74401C28.8177 9.5674 28.8385 9.37738 28.8167 9.19025C28.7949 9.00311 28.7312 8.82443 28.6309 8.66951Z" fill="white"/>
<path d="M16.3159 24.5C17.217 24.5 17.9475 23.7165 17.9475 22.75C17.9475 21.7835 17.217 21 16.3159 21C15.4148 21 14.6843 21.7835 14.6843 22.75C14.6843 23.7165 15.4148 24.5 16.3159 24.5Z" fill="white"/>
<path d="M23.9299 24.5C24.831 24.5 25.5615 23.7165 25.5615 22.75C25.5615 21.7835 24.831 21 23.9299 21C23.0288 21 22.2983 21.7835 22.2983 22.75C22.2983 23.7165 23.0288 24.5 23.9299 24.5Z" fill="white"/>
</svg>
