<svg width="171" height="79" viewBox="0 0 171 79" fill="none" xmlns="http://www.w3.org/2000/svg">
<path d="M23.05 27.4V40H20.134V34.834H14.41V40H11.494V27.4H14.41V32.368H20.134V27.4H23.05Z" fill="#DA1E1E"/>
<path d="M30.4411 40.144C29.4211 40.144 28.5031 39.934 27.6871 39.514C26.8831 39.082 26.2531 38.488 25.7971 37.732C25.3411 36.976 25.1131 36.118 25.1131 35.158C25.1131 34.198 25.3411 33.34 25.7971 32.584C26.2531 31.828 26.8831 31.24 27.6871 30.82C28.5031 30.388 29.4211 30.172 30.4411 30.172C31.4611 30.172 32.3731 30.388 33.1771 30.82C33.9811 31.24 34.6111 31.828 35.0671 32.584C35.5231 33.34 35.7511 34.198 35.7511 35.158C35.7511 36.118 35.5231 36.976 35.0671 37.732C34.6111 38.488 33.9811 39.082 33.1771 39.514C32.3731 39.934 31.4611 40.144 30.4411 40.144ZM30.4411 37.84C31.1611 37.84 31.7491 37.6 32.2051 37.12C32.6731 36.628 32.9071 35.974 32.9071 35.158C32.9071 34.342 32.6731 33.694 32.2051 33.214C31.7491 32.722 31.1611 32.476 30.4411 32.476C29.7211 32.476 29.1271 32.722 28.6591 33.214C28.1911 33.694 27.9571 34.342 27.9571 35.158C27.9571 35.974 28.1911 36.628 28.6591 37.12C29.1271 37.6 29.7211 37.84 30.4411 37.84ZM40.31 31.594C40.646 31.126 41.096 30.772 41.66 30.532C42.236 30.292 42.896 30.172 43.64 30.172V32.764C43.328 32.74 43.118 32.728 43.01 32.728C42.206 32.728 41.576 32.956 41.12 33.412C40.664 33.856 40.436 34.528 40.436 35.428V40H37.628V30.316H40.31V31.594ZM45.3097 30.316H48.1177V40H45.3097V30.316ZM46.7137 28.966C46.1977 28.966 45.7777 28.816 45.4537 28.516C45.1297 28.216 44.9677 27.844 44.9677 27.4C44.9677 26.956 45.1297 26.584 45.4537 26.284C45.7777 25.984 46.1977 25.834 46.7137 25.834C47.2297 25.834 47.6497 25.978 47.9737 26.266C48.2977 26.554 48.4597 26.914 48.4597 27.346C48.4597 27.814 48.2977 28.204 47.9737 28.516C47.6497 28.816 47.2297 28.966 46.7137 28.966ZM58.6977 37.84V40H50.0577V38.308L54.9897 32.476H50.1837V30.316H58.5357V32.008L53.6037 37.84H58.6977ZM64.9821 40.144C63.9621 40.144 63.0441 39.934 62.2281 39.514C61.4241 39.082 60.7941 38.488 60.3381 37.732C59.8821 36.976 59.6541 36.118 59.6541 35.158C59.6541 34.198 59.8821 33.34 60.3381 32.584C60.7941 31.828 61.4241 31.24 62.2281 30.82C63.0441 30.388 63.9621 30.172 64.9821 30.172C66.0021 30.172 66.9141 30.388 67.7181 30.82C68.5221 31.24 69.1521 31.828 69.6081 32.584C70.0641 33.34 70.2921 34.198 70.2921 35.158C70.2921 36.118 70.0641 36.976 69.6081 37.732C69.1521 38.488 68.5221 39.082 67.7181 39.514C66.9141 39.934 66.0021 40.144 64.9821 40.144ZM64.9821 37.84C65.7021 37.84 66.2901 37.6 66.7461 37.12C67.2141 36.628 67.4481 35.974 67.4481 35.158C67.4481 34.342 67.2141 33.694 66.7461 33.214C66.2901 32.722 65.7021 32.476 64.9821 32.476C64.2621 32.476 63.6681 32.722 63.2001 33.214C62.7321 33.694 62.4981 34.342 62.4981 35.158C62.4981 35.974 62.7321 36.628 63.2001 37.12C63.6681 37.6 64.2621 37.84 64.9821 37.84ZM78.055 30.172C79.255 30.172 80.221 30.532 80.953 31.252C81.697 31.972 82.069 33.04 82.069 34.456V40H79.261V34.888C79.261 34.12 79.093 33.55 78.757 33.178C78.421 32.794 77.935 32.602 77.299 32.602C76.591 32.602 76.027 32.824 75.607 33.268C75.187 33.7 74.977 34.348 74.977 35.212V40H72.169V30.316H74.851V31.45C75.223 31.042 75.685 30.73 76.237 30.514C76.789 30.286 77.395 30.172 78.055 30.172Z" fill="black"/>
<circle cx="121.5" cy="33.5" r="33.5" fill="#DA1E1E"/>
<g filter="url(#filter0_d_90:27)">
<line x1="87.9762" y1="36.5002" x2="154.975" y2="35.4367" stroke="black" stroke-width="3"/>
</g>
<path d="M57.524 58.216C56.24 58.216 55.076 57.94 54.032 57.388C53 56.824 52.184 56.05 51.584 55.066C50.996 54.07 50.702 52.948 50.702 51.7C50.702 50.452 50.996 49.336 51.584 48.352C52.184 47.356 53 46.582 54.032 46.03C55.076 45.466 56.246 45.184 57.542 45.184C58.634 45.184 59.618 45.376 60.494 45.76C61.382 46.144 62.126 46.696 62.726 47.416L60.854 49.144C60.002 48.16 58.946 47.668 57.686 47.668C56.906 47.668 56.21 47.842 55.598 48.19C54.986 48.526 54.506 49 54.158 49.612C53.822 50.224 53.654 50.92 53.654 51.7C53.654 52.48 53.822 53.176 54.158 53.788C54.506 54.4 54.986 54.88 55.598 55.228C56.21 55.564 56.906 55.732 57.686 55.732C58.946 55.732 60.002 55.234 60.854 54.238L62.726 55.966C62.126 56.698 61.382 57.256 60.494 57.64C59.606 58.024 58.616 58.216 57.524 58.216ZM68.7712 58.144C67.7512 58.144 66.8332 57.934 66.0172 57.514C65.2132 57.082 64.5832 56.488 64.1272 55.732C63.6712 54.976 63.4432 54.118 63.4432 53.158C63.4432 52.198 63.6712 51.34 64.1272 50.584C64.5832 49.828 65.2132 49.24 66.0172 48.82C66.8332 48.388 67.7512 48.172 68.7712 48.172C69.7912 48.172 70.7032 48.388 71.5072 48.82C72.3112 49.24 72.9412 49.828 73.3972 50.584C73.8532 51.34 74.0812 52.198 74.0812 53.158C74.0812 54.118 73.8532 54.976 73.3972 55.732C72.9412 56.488 72.3112 57.082 71.5072 57.514C70.7032 57.934 69.7912 58.144 68.7712 58.144ZM68.7712 55.84C69.4912 55.84 70.0792 55.6 70.5352 55.12C71.0032 54.628 71.2372 53.974 71.2372 53.158C71.2372 52.342 71.0032 51.694 70.5352 51.214C70.0792 50.722 69.4912 50.476 68.7712 50.476C68.0512 50.476 67.4572 50.722 66.9892 51.214C66.5212 51.694 66.2872 52.342 66.2872 53.158C66.2872 53.974 66.5212 54.628 66.9892 55.12C67.4572 55.6 68.0512 55.84 68.7712 55.84ZM85.7141 48.316V58H83.0501V56.848C82.6781 57.268 82.2341 57.592 81.7181 57.82C81.2021 58.036 80.6441 58.144 80.0441 58.144C78.7721 58.144 77.7641 57.778 77.0201 57.046C76.2761 56.314 75.9041 55.228 75.9041 53.788V48.316H78.7121V53.374C78.7121 54.934 79.3661 55.714 80.6741 55.714C81.3461 55.714 81.8861 55.498 82.2941 55.066C82.7021 54.622 82.9061 53.968 82.9061 53.104V48.316H85.7141ZM94.5615 57.532C94.2855 57.736 93.9435 57.892 93.5355 58C93.1395 58.096 92.7195 58.144 92.2755 58.144C91.1235 58.144 90.2295 57.85 89.5935 57.262C88.9695 56.674 88.6575 55.81 88.6575 54.67V50.692H87.1635V48.532H88.6575V46.174H91.4655V48.532H93.8775V50.692H91.4655V54.634C91.4655 55.042 91.5675 55.36 91.7715 55.588C91.9875 55.804 92.2875 55.912 92.6715 55.912C93.1155 55.912 93.4935 55.792 93.8055 55.552L94.5615 57.532ZM105.894 48.316V58H103.23V56.848C102.858 57.268 102.414 57.592 101.898 57.82C101.382 58.036 100.824 58.144 100.224 58.144C98.9518 58.144 97.9438 57.778 97.1998 57.046C96.4558 56.314 96.0838 55.228 96.0838 53.788V48.316H98.8918V53.374C98.8918 54.934 99.5458 55.714 100.854 55.714C101.526 55.714 102.066 55.498 102.474 55.066C102.882 54.622 103.086 53.968 103.086 53.104V48.316H105.894ZM111.177 49.594C111.513 49.126 111.963 48.772 112.527 48.532C113.103 48.292 113.763 48.172 114.507 48.172V50.764C114.195 50.74 113.985 50.728 113.877 50.728C113.073 50.728 112.443 50.956 111.987 51.412C111.531 51.856 111.303 52.528 111.303 53.428V58H108.495V48.316H111.177V49.594ZM125.575 53.194C125.575 53.23 125.557 53.482 125.521 53.95H118.195C118.327 54.55 118.639 55.024 119.131 55.372C119.623 55.72 120.235 55.894 120.967 55.894C121.471 55.894 121.915 55.822 122.299 55.678C122.695 55.522 123.061 55.282 123.397 54.958L124.891 56.578C123.979 57.622 122.647 58.144 120.895 58.144C119.803 58.144 118.837 57.934 117.997 57.514C117.157 57.082 116.509 56.488 116.053 55.732C115.597 54.976 115.369 54.118 115.369 53.158C115.369 52.21 115.591 51.358 116.035 50.602C116.491 49.834 117.109 49.24 117.889 48.82C118.681 48.388 119.563 48.172 120.535 48.172C121.483 48.172 122.341 48.376 123.109 48.784C123.877 49.192 124.477 49.78 124.909 50.548C125.353 51.304 125.575 52.186 125.575 53.194ZM120.553 50.296C119.917 50.296 119.383 50.476 118.951 50.836C118.519 51.196 118.255 51.688 118.159 52.312H122.929C122.833 51.7 122.569 51.214 122.137 50.854C121.705 50.482 121.177 50.296 120.553 50.296Z" fill="black"/>
<defs>
<filter id="filter0_d_90:27" x="82.9524" y="33.9369" width="77.0466" height="14.0631" filterUnits="userSpaceOnUse" color-interpolation-filters="sRGB">
<feFlood flood-opacity="0" result="BackgroundImageFix"/>
<feColorMatrix in="SourceAlpha" type="matrix" values="0 0 0 0 0 0 0 0 0 0 0 0 0 0 0 0 0 0 127 0" result="hardAlpha"/>
<feOffset dy="5"/>
<feGaussianBlur stdDeviation="2.5"/>
<feComposite in2="hardAlpha" operator="out"/>
<feColorMatrix type="matrix" values="0 0 0 0 0 0 0 0 0 0 0 0 0 0 0 0 0 0 0.25 0"/>
<feBlend mode="normal" in2="BackgroundImageFix" result="effect1_dropShadow_90:27"/>
<feBlend mode="normal" in="SourceGraphic" in2="effect1_dropShadow_90:27" result="shape"/>
</filter>
</defs>
</svg>
